<?xml version="1.0" standalone="no"?><svg xmlns="http://www.w3.org/2000/svg" viewBox="0 0 1440 320"><path fill="#333333" fill-opacity="1" d="M0,128L13.3,149.3C26.7,171,53,213,80,197.3C106.7,181,133,107,160,101.3C186.7,96,213,160,240,176C266.7,192,293,160,320,149.3C346.7,139,373,149,400,181.3C426.7,213,453,267,480,288C506.7,309,533,299,560,277.3C586.7,256,613,224,640,192C666.7,160,693,128,720,96C746.7,64,773,32,800,26.7C826.7,21,853,43,880,42.7C906.7,43,933,21,960,64C986.7,107,1013,213,1040,218.7C1066.7,224,1093,128,1120,112C1146.7,96,1173,160,1200,186.7C1226.7,213,1253,203,1280,186.7C1306.7,171,1333,149,1360,122.7C1386.7,96,1413,64,1427,48L1440,32L1440,0L1426.7,0C1413.3,0,1387,0,1360,0C1333.3,0,1307,0,1280,0C1253.3,0,1227,0,1200,0C1173.3,0,1147,0,1120,0C1093.3,0,1067,0,1040,0C1013.3,0,987,0,960,0C933.3,0,907,0,880,0C853.3,0,827,0,800,0C773.3,0,747,0,720,0C693.3,0,667,0,640,0C613.3,0,587,0,560,0C533.3,0,507,0,480,0C453.3,0,427,0,400,0C373.3,0,347,0,320,0C293.3,0,267,0,240,0C213.3,0,187,0,160,0C133.3,0,107,0,80,0C53.3,0,27,0,13,0L0,0Z"></path></svg>